<svg xmlns="http://www.w3.org/2000/svg" width="1920" height="544" viewBox="0 0 1920 544">
<g>
<path d="M 0.00 0.00 L 1920.00 0.00 L 1920.00 544.00 L 0.00 544.00 ZM 1539.00 164.00 L 1539.00 384.03 L 1591.50 383.50 L 1591.77 364.59 L 1592.05 345.69 L 1604.63 332.34 C1611.55,325.01 1617.73,319.00 1618.36,319.00 C1619.44,319.00 1622.30,323.21 1627.54,332.50 C1628.78,334.70 1632.16,340.55 1635.04,345.50 C1645.89,364.09 1647.36,366.66 1650.76,373.00 C1652.68,376.58 1654.81,380.40 1655.49,381.50 C1656.68,383.43 1657.80,383.50 1687.61,383.50 C1715.51,383.50 1718.49,383.34 1718.38,381.87 C1718.32,380.98 1715.43,375.81 1711.97,370.37 C1703.30,356.77 1690.59,336.76 1684.00,326.34 C1680.97,321.55 1676.69,314.91 1674.47,311.57 C1666.51,299.57 1657.00,283.84 1657.00,282.68 C1657.01,282.03 1664.72,273.40 1674.15,263.50 C1700.78,235.53 1713.00,222.17 1713.00,221.04 C1713.00,220.34 1702.97,220.00 1682.70,220.00 L 1652.41 220.00 L 1633.45 240.10 C1623.03,251.16 1609.91,265.22 1604.29,271.34 C1598.68,277.46 1593.61,282.63 1593.04,282.82 C1592.33,283.06 1592.00,264.42 1592.00,223.58 L 1592.00 164.00 ZM 202.50 385.27 C210.16,386.37 235.96,385.91 243.00,384.55 C258.06,381.64 270.79,376.27 283.22,367.59 C293.62,360.31 309.36,342.86 311.41,336.33 C311.91,334.72 311.49,333.74 309.79,332.54 C302.86,327.63 273.91,309.00 273.22,309.00 C272.77,309.00 270.74,311.19 268.69,313.87 C261.80,322.91 248.87,333.08 241.38,335.35 C235.45,337.15 232.42,337.47 222.00,337.41 C205.45,337.31 195.72,333.43 184.93,322.62 C173.37,311.03 168.13,297.63 167.29,277.50 C166.69,263.04 168.20,255.38 174.03,243.32 C187.38,215.72 220.23,205.14 249.14,219.14 C255.61,222.28 266.60,231.99 270.12,237.70 C271.24,239.51 272.69,241.00 273.33,240.99 C275.57,240.98 311.00,215.75 311.00,214.17 C311.00,212.15 298.69,196.87 292.30,190.97 C279.80,179.42 260.62,170.54 242.55,167.94 C230.30,166.18 207.88,166.35 198.50,168.27 C171.63,173.76 149.83,186.91 134.15,207.05 C122.83,221.61 113.95,241.95 111.92,258.00 C110.73,267.42 110.82,288.98 112.08,295.17 C117.19,320.38 125.83,337.51 141.94,354.37 C153.74,366.72 170.88,377.47 184.50,381.08 C192.28,383.13 199.77,384.88 202.50,385.27 ZM 451.00 386.09 C454.56,387.29 470.34,386.45 477.90,384.65 C487.60,382.34 496.78,377.45 503.28,371.12 C509.98,364.62 510.41,364.82 511.35,374.84 C511.78,379.47 512.50,381.89 513.70,382.77 C515.01,383.72 521.09,383.97 538.46,383.77 L 561.49 383.50 L 561.17 328.50 C561.00,298.25 560.46,271.92 559.99,270.00 C559.51,268.08 558.57,264.25 557.90,261.50 C554.34,246.95 543.76,233.52 531.00,227.37 C515.64,219.96 495.88,217.00 473.81,218.80 C458.20,220.08 452.14,221.01 444.50,223.32 C430.83,227.45 417.17,233.39 416.34,235.56 C416.08,236.24 417.66,241.46 419.85,247.15 C422.04,252.84 424.66,260.08 425.67,263.24 C426.68,266.40 427.98,268.99 428.58,268.99 C429.17,269.00 432.44,267.87 435.83,266.49 C451.77,260.01 475.09,257.32 488.20,260.44 C501.28,263.56 506.44,269.07 506.48,280.00 L 506.50 286.50 L 480.50 287.08 C466.20,287.39 453.83,287.94 453.00,288.28 C452.17,288.62 449.84,289.14 447.81,289.44 C433.01,291.58 417.17,302.88 411.60,315.29 C407.29,324.87 406.68,328.29 407.24,339.41 C407.74,349.09 408.09,350.54 411.85,358.32 C414.84,364.49 417.36,368.04 421.29,371.62 C426.95,376.77 436.47,381.97 444.00,384.02 C446.48,384.69 449.62,385.62 451.00,386.09 ZM 1209.21 383.48 C1221.35,387.82 1230.19,388.06 1244.80,384.46 C1257.48,381.32 1266.72,376.29 1273.92,368.59 C1277.01,365.30 1278.00,365.32 1278.00,368.69 C1278.00,370.17 1278.53,373.93 1279.17,377.04 L 1280.34 382.70 L 1299.42 383.29 C1309.91,383.62 1320.53,383.57 1323.00,383.19 L 1327.50 382.50 L 1327.76 329.18 C1328.00,279.42 1327.59,267.85 1325.24,259.00 C1323.31,251.71 1318.70,243.88 1312.70,237.68 C1304.09,228.78 1293.72,223.64 1277.50,220.23 C1266.01,217.82 1233.78,217.92 1222.00,220.40 C1217.32,221.38 1213.07,222.60 1212.55,223.09 C1212.03,223.59 1210.66,224.00 1209.50,224.00 C1208.34,224.00 1206.97,224.36 1206.45,224.80 C1205.93,225.23 1203.70,226.17 1201.50,226.88 C1197.65,228.12 1194.20,229.53 1187.25,232.73 C1185.46,233.55 1184.00,234.79 1184.00,235.48 C1184.00,236.88 1190.39,255.78 1194.42,266.31 C1195.67,269.56 1196.33,269.52 1205.80,265.53 C1218.53,260.18 1241.18,257.57 1253.94,259.99 C1267.67,262.59 1274.38,269.62 1273.80,280.79 L 1273.50 286.50 L 1247.00 287.13 C1226.62,287.62 1219.11,288.16 1214.50,289.46 C1211.20,290.39 1207.48,291.40 1206.24,291.70 C1204.99,292.00 1203.73,292.64 1203.43,293.12 C1203.13,293.60 1202.24,294.00 1201.46,294.00 C1199.23,294.00 1189.87,300.41 1185.91,304.65 C1177.27,313.90 1174.91,320.04 1174.27,335.00 C1173.80,346.05 1173.90,346.81 1176.88,354.54 C1182.36,368.74 1191.92,377.29 1209.21,383.48 ZM 937.87 301.25 L 938.00 384.00 L 964.38 384.00 C986.25,384.00 990.96,383.75 991.96,382.54 C992.89,381.43 993.11,361.64 992.89,297.29 L 992.62 213.50 L 1025.06 213.00 L 1057.50 212.50 L 1058.04 169.00 L 871.00 169.00 L 871.00 213.00 L 937.86 213.00 L 937.80 215.75 C937.77,217.26 937.80,255.74 937.87,301.25 ZM 1421.00 386.04 C1425.80,387.58 1443.26,387.04 1453.50,385.04 C1472.35,381.36 1486.46,374.76 1498.01,364.22 C1505.57,357.32 1515.34,343.99 1514.81,341.28 C1514.52,339.77 1477.09,319.99 1474.56,320.01 C1473.98,320.01 1472.41,321.62 1471.07,323.58 C1467.78,328.42 1460.46,334.73 1455.00,337.45 C1439.75,345.03 1422.11,343.10 1411.15,332.65 C1401.64,323.59 1398.56,314.86 1399.15,298.72 C1399.51,289.10 1399.82,287.75 1403.30,280.71 C1410.61,265.91 1421.61,260.10 1440.03,261.29 C1446.89,261.73 1450.29,262.52 1455.19,264.79 C1461.16,267.56 1468.09,273.77 1472.02,279.85 L 1473.54 282.20 L 1493.14 272.71 C1503.92,267.49 1513.04,262.74 1513.41,262.15 C1514.86,259.80 1507.74,248.60 1499.65,240.51 C1493.00,233.87 1489.84,231.58 1482.50,228.07 C1477.55,225.69 1472.72,223.36 1471.76,222.88 C1470.81,222.39 1469.15,222.00 1468.07,222.00 C1467.00,222.00 1465.87,221.61 1465.58,221.13 C1463.95,218.49 1420.19,217.42 1412.00,219.82 C1409.53,220.54 1405.93,221.58 1404.00,222.13 C1402.07,222.68 1399.60,223.53 1398.50,224.02 C1397.40,224.51 1394.84,225.57 1392.82,226.38 C1379.49,231.68 1362.31,247.17 1355.61,259.92 C1348.21,274.00 1346.01,282.53 1345.33,299.74 C1344.71,315.27 1347.20,326.85 1354.20,341.00 C1358.67,350.04 1360.65,352.76 1368.45,360.60 C1381.55,373.77 1394.73,380.91 1411.63,383.99 C1415.41,384.68 1419.62,385.60 1421.00,386.04 ZM 783.00 385.40 C789.68,386.17 819.52,385.18 823.50,384.06 C835.90,380.58 839.12,379.43 845.24,376.25 C853.39,372.03 863.51,361.73 866.65,354.47 C870.74,344.99 871.31,341.62 870.77,329.80 C870.33,320.10 869.85,317.65 867.41,312.50 C862.17,301.41 847.83,290.74 832.50,286.53 C819.77,283.03 815.23,281.86 807.46,280.05 C788.51,275.64 783.00,272.50 783.00,266.09 C783.00,258.01 792.98,254.68 810.88,256.80 C821.12,258.02 836.87,261.62 838.45,263.11 C838.97,263.60 840.10,264.02 840.95,264.04 C841.80,264.06 844.75,265.13 847.50,266.42 C850.25,267.72 852.86,268.56 853.31,268.29 C854.20,267.76 857.43,260.73 861.04,251.50 C862.32,248.20 864.14,244.12 865.07,242.43 C866.00,240.75 867.05,238.03 867.41,236.41 C868.02,233.63 867.74,233.30 862.78,230.85 C842.30,220.73 813.53,216.08 788.50,218.84 C761.30,221.84 742.90,233.98 735.94,253.50 C732.64,262.77 732.22,275.03 734.88,284.84 C736.40,290.46 742.09,299.31 747.34,304.21 C754.85,311.21 769.66,317.50 788.00,321.49 C815.50,327.47 820.26,330.16 819.03,339.00 C818.70,341.33 815.88,344.02 812.02,345.68 C807.08,347.81 786.13,346.84 776.53,344.04 C768.72,341.76 757.35,337.19 748.78,332.88 C745.63,331.29 742.66,330.00 742.17,330.00 C741.67,330.00 740.03,332.81 738.52,336.25 C737.00,339.69 733.80,346.67 731.40,351.77 C730.98,352.66 730.58,353.50 730.21,354.28 C727.34,360.32 726.01,363.11 726.78,365.07 C727.54,367.01 730.32,368.14 735.66,370.81 C744.19,375.08 753.33,378.59 764.50,381.89 C768.03,382.93 778.02,384.83 783.00,385.40 ZM 633.50 385.43 C635.15,385.66 643.03,385.66 651.00,385.43 C676.41,384.71 690.82,379.80 703.47,367.55 C713.55,357.80 718.00,346.81 718.00,331.66 C718.00,311.31 707.94,297.67 686.88,289.44 C682.27,287.64 669.95,284.05 659.50,281.46 C649.05,278.87 638.84,275.92 636.82,274.89 C629.47,271.17 627.83,264.83 632.98,260.02 C635.47,257.69 637.18,257.12 643.42,256.54 C651.13,255.82 658.85,256.34 667.50,258.19 C673.45,259.45 684.69,262.70 687.50,263.97 C696.47,268.01 699.38,268.93 700.44,268.05 C701.07,267.52 702.62,264.48 703.88,261.30 C705.14,258.11 708.16,250.76 710.59,244.96 C713.01,239.16 715.00,234.10 715.00,233.72 C715.00,233.33 712.86,232.07 710.25,230.92 C707.64,229.78 704.83,228.49 704.00,228.08 C701.01,226.57 681.33,221.17 674.00,219.85 C664.15,218.08 635.33,218.09 628.00,219.87 C600.98,226.43 586.68,239.55 582.43,261.66 C581.60,265.97 581.19,271.30 581.51,273.50 C583.43,286.68 586.37,293.82 592.67,300.64 C596.96,305.29 606.69,311.97 612.00,313.92 C613.92,314.62 616.40,315.57 617.50,316.03 C621.10,317.52 629.36,319.84 637.00,321.50 C641.12,322.40 647.20,323.83 650.50,324.68 C665.30,328.50 670.45,334.75 664.56,341.75 C661.50,345.38 656.22,347.00 647.38,347.00 C633.41,347.00 619.32,343.12 601.75,334.42 L 591.00 329.11 L 589.12 333.30 C588.09,335.61 586.24,339.75 585.00,342.50 C577.80,358.57 575.32,364.89 575.87,365.77 C576.64,366.98 590.45,373.81 598.00,376.72 C609.77,381.26 618.33,383.36 633.50,385.43 ZM 333.46 381.70 L 334.04 384.00 L 358.77 383.98 C372.37,383.98 384.02,383.64 384.66,383.23 C385.51,382.69 385.95,354.19 386.34,272.87 L 386.86 163.24 L 371.68 162.65 C363.33,162.32 351.10,162.38 344.50,162.78 L 332.50 163.50 L 332.23 190.25 C332.09,204.96 332.31,217.00 332.73,217.00 C333.16,217.00 333.36,253.54 333.19,298.19 C333.02,342.85 333.14,380.43 333.46,381.70 ZM 1065.22 382.82 C1066.12,383.72 1072.84,383.97 1091.47,383.77 L 1116.50 383.50 L 1117.04 340.00 C1117.34,316.08 1117.95,295.60 1118.40,294.50 C1126.13,275.53 1135.62,269.44 1159.50,268.11 L 1170.50 267.50 L 1170.50 218.50 L 1161.00 218.53 C1143.51,218.59 1131.29,225.55 1117.90,243.07 L 1115.31 246.47 L 1114.61 236.48 C1114.23,230.99 1113.66,225.04 1113.35,223.25 L 1112.78 220.00 L 1064.00 220.00 L 1064.00 300.80 C1064.00,362.93 1064.28,381.88 1065.22,382.82 ZM 1743.04 382.89 C1748.12,384.43 1757.91,383.60 1762.57,381.22 C1767.98,378.46 1774.61,371.08 1775.92,366.35 C1777.47,360.75 1777.24,349.83 1775.48,345.60 C1773.19,340.13 1767.58,334.49 1762.47,332.54 C1759.05,331.23 1755.72,330.89 1749.04,331.15 C1741.06,331.46 1739.73,331.81 1735.85,334.54 C1733.47,336.21 1730.19,339.56 1728.56,341.99 C1725.97,345.84 1725.55,347.49 1725.21,354.95 C1724.89,361.93 1725.18,364.32 1726.82,368.00 C1730.05,375.22 1736.10,380.77 1743.04,382.89 ZM 1250.07 348.85 C1249.70,348.91 1249.35,348.97 1249.02,349.03 C1245.31,349.64 1243.77,349.90 1242.25,349.80 C1241.03,349.72 1239.82,349.41 1237.51,348.87 C1228.68,346.80 1223.63,340.82 1223.55,332.35 C1223.51,328.06 1224.01,326.55 1226.56,323.35 C1228.25,321.23 1231.32,318.66 1233.38,317.64 C1238.29,315.20 1249.94,313.85 1263.00,314.21 L 1273.50 314.50 L 1273.74 322.50 C1273.94,329.17 1273.60,331.25 1271.70,335.00 C1268.39,341.51 1259.31,347.33 1250.07,348.85 ZM 489.32 347.41 C484.31,349.11 472.46,349.42 467.59,347.96 C463.68,346.79 458.29,341.40 456.93,337.30 C454.58,330.17 458.24,321.45 465.04,317.98 C470.12,315.39 483.21,313.82 496.60,314.21 L 506.50 314.50 L 506.80 321.47 C507.00,326.14 506.56,329.85 505.48,332.69 C503.42,338.09 495.50,345.30 489.32,347.41 ZM 1862.52 509.11 C1863.42,513.19 1864.45,512.72 1866.54,507.26 C1868.90,501.08 1877.08,492.90 1883.26,490.54 C1885.87,489.54 1888.00,488.45 1888.00,488.11 C1887.99,487.78 1885.86,486.62 1883.25,485.55 C1877.01,483.00 1868.84,474.78 1866.54,468.74 C1864.47,463.32 1863.50,462.84 1862.55,466.75 C1860.64,474.63 1850.47,484.86 1842.89,486.52 C1839.25,487.32 1839.18,488.59 1842.75,489.45 C1850.63,491.36 1860.86,501.53 1862.52,509.11 Z" fill="rgb(26,26,26)"/>
<path d="M 333.25 274.30 C333.28,241.21 333.08,217.00 332.73,217.00 C332.31,217.00 332.09,204.96 332.23,190.25 L 332.50 163.50 L 344.50 162.78 C351.10,162.38 363.33,162.32 371.68,162.65 L 386.86 163.24 L 386.61 215.84 C386.65,186.96 386.50,165.82 386.10,165.16 C385.55,164.27 378.85,164.03 359.93,164.23 L 334.50 164.50 L 333.88 200.00 C333.59,217.21 333.37,245.28 333.25,274.30 ZM 1209.21 383.48 L 1209.09 383.43 C1211.64,384.18 1214.29,384.74 1217.00,385.10 C1224.14,386.06 1239.42,385.36 1247.42,383.77 C1246.56,384.01 1245.69,384.24 1244.80,384.46 C1230.19,388.06 1221.35,387.82 1209.21,383.48 ZM 451.00 386.09 C449.62,385.62 446.48,384.69 444.00,384.02 C441.47,383.33 438.71,382.28 435.94,381.00 C442.13,383.79 446.69,384.95 452.50,385.32 C463.10,385.99 464.76,385.96 473.50,384.92 C478.91,384.27 483.91,382.97 488.51,381.01 C485.12,382.55 481.55,383.78 477.90,384.65 C470.34,386.45 454.56,387.29 451.00,386.09 ZM 386.24 291.61 C385.87,358.49 385.44,382.64 384.66,383.23 C385.25,382.72 385.86,339.46 386.24,291.61 ZM 333.68 382.57 C334.40,383.80 338.04,383.99 358.24,383.99 L 334.04 384.00 ZM 333.46 381.70 C333.18,380.57 333.05,350.83 333.14,312.92 C333.10,348.55 333.23,378.50 333.56,382.08 ZM 1191.78 374.59 C1184.85,369.45 1180.14,363.00 1176.88,354.54 C1179.96,362.53 1185.14,369.37 1191.78,374.59 ZM 421.51 371.82 C421.44,371.75 421.36,371.68 421.29,371.62 C417.36,368.04 414.84,364.49 411.85,358.32 C414.47,363.73 417.60,368.14 421.51,371.82 ZM 1261.42 378.23 C1266.14,375.53 1270.60,372.15 1273.92,368.59 C1270.32,372.44 1266.21,375.62 1261.42,378.23 ZM 1188.62 232.10 C1185.82,233.54 1184.00,234.80 1184.00,235.48 C1184.00,234.79 1185.46,233.55 1187.25,232.73 C1187.72,232.51 1188.18,232.31 1188.62,232.10 Z" fill="rgb(93,93,93)"/>
<path d="M 1862.52 509.11 C1860.86,501.53 1850.63,491.36 1842.75,489.45 C1839.18,488.59 1839.25,487.32 1842.89,486.52 C1850.47,484.86 1860.64,474.63 1862.55,466.75 C1863.50,462.84 1864.47,463.32 1866.54,468.74 C1868.84,474.78 1877.01,483.00 1883.25,485.55 C1885.86,486.62 1887.99,487.78 1888.00,488.11 C1888.00,488.45 1885.87,489.54 1883.26,490.54 C1877.08,492.90 1868.90,501.08 1866.54,507.26 C1864.45,512.72 1863.42,513.19 1862.52,509.11 ZM 1421.00 386.04 C1419.62,385.60 1415.41,384.68 1411.63,383.99 C1394.73,380.91 1381.55,373.77 1368.45,360.60 C1360.65,352.76 1358.67,350.04 1354.20,341.00 C1347.20,326.85 1344.71,315.27 1345.33,299.74 C1346.01,282.53 1348.21,274.00 1355.61,259.92 C1362.31,247.17 1379.49,231.68 1392.82,226.38 C1394.84,225.57 1397.40,224.51 1398.50,224.02 C1399.60,223.53 1402.07,222.68 1404.00,222.13 C1405.93,221.58 1409.53,220.54 1412.00,219.82 C1420.19,217.42 1463.95,218.49 1465.58,221.13 C1465.87,221.61 1467.00,222.00 1468.07,222.00 C1469.15,222.00 1470.81,222.39 1471.76,222.88 C1472.72,223.36 1477.55,225.69 1482.50,228.07 C1489.84,231.58 1493.00,233.87 1499.65,240.51 C1507.74,248.60 1514.86,259.80 1513.41,262.15 C1513.04,262.74 1503.92,267.49 1493.14,272.71 L 1473.54 282.20 L 1472.02 279.85 C1468.09,273.77 1461.16,267.56 1455.19,264.79 C1450.29,262.52 1446.89,261.73 1440.03,261.29 C1421.61,260.10 1410.61,265.91 1403.30,280.71 C1399.82,287.75 1399.51,289.10 1399.15,298.72 C1398.56,314.86 1401.64,323.59 1411.15,332.65 C1422.11,343.10 1439.75,345.03 1455.00,337.45 C1460.46,334.73 1467.78,328.42 1471.07,323.58 C1472.41,321.62 1473.98,320.01 1474.56,320.01 C1477.09,319.99 1514.52,339.77 1514.81,341.28 C1515.34,343.99 1505.57,357.32 1498.01,364.22 C1486.46,374.76 1472.35,381.36 1453.50,385.04 C1443.26,387.04 1425.80,387.58 1421.00,386.04 ZM 202.50 385.27 C199.77,384.88 192.28,383.13 184.50,381.08 C170.88,377.47 153.74,366.72 141.94,354.37 C125.83,337.51 117.19,320.38 112.08,295.17 C110.82,288.98 110.73,267.42 111.92,258.00 C113.95,241.95 122.83,221.61 134.15,207.05 C149.83,186.91 171.63,173.76 198.50,168.27 C207.88,166.35 230.30,166.18 242.55,167.94 C260.62,170.54 279.80,179.42 292.30,190.97 C298.69,196.87 311.00,212.15 311.00,214.17 C311.00,215.75 275.57,240.98 273.33,240.99 C272.69,241.00 271.24,239.51 270.12,237.70 C266.60,231.99 255.61,222.28 249.14,219.14 C220.23,205.14 187.38,215.72 174.03,243.32 C168.20,255.38 166.69,263.04 167.29,277.50 C168.13,297.63 173.37,311.03 184.93,322.62 C195.72,333.43 205.45,337.31 222.00,337.41 C232.42,337.47 235.45,337.15 241.38,335.35 C248.87,333.08 261.80,322.91 268.69,313.87 C270.74,311.19 272.77,309.00 273.22,309.00 C273.91,309.00 302.86,327.63 309.79,332.54 C311.49,333.74 311.91,334.72 311.41,336.33 C309.36,342.86 293.62,360.31 283.22,367.59 C270.79,376.27 258.06,381.64 243.00,384.55 C235.96,385.91 210.16,386.37 202.50,385.27 ZM 452.50 385.32 C445.83,384.90 440.80,383.43 433.08,379.65 C423.18,374.80 416.66,368.25 411.85,358.32 C408.09,350.54 407.74,349.09 407.24,339.41 C406.68,328.29 407.29,324.87 411.60,315.29 C417.17,302.88 433.01,291.58 447.81,289.44 C449.84,289.14 452.17,288.62 453.00,288.28 C453.83,287.94 466.20,287.39 480.50,287.08 L 506.50 286.50 L 506.48 280.00 C506.44,269.07 501.28,263.56 488.20,260.44 C475.09,257.32 451.77,260.01 435.83,266.49 C432.44,267.87 429.17,269.00 428.58,268.99 C427.98,268.99 426.68,266.40 425.67,263.24 C424.66,260.08 422.04,252.84 419.85,247.15 C417.66,241.46 416.08,236.24 416.34,235.56 C417.17,233.39 430.83,227.45 444.50,223.32 C452.14,221.01 458.20,220.08 473.81,218.80 C495.88,217.00 515.64,219.96 531.00,227.37 C543.76,233.52 554.34,246.95 557.90,261.50 C558.57,264.25 559.51,268.08 559.99,270.00 C560.46,271.92 561.00,298.25 561.17,328.50 L 561.49 383.50 L 538.46 383.77 C521.09,383.97 515.01,383.72 513.70,382.77 C512.50,381.89 511.78,379.47 511.35,374.84 C510.41,364.82 509.97,364.62 503.28,371.14 C495.33,378.90 485.41,383.49 473.50,384.92 C464.76,385.96 463.10,385.99 452.50,385.32 ZM 489.32 347.41 C495.50,345.30 503.42,338.09 505.48,332.69 C506.56,329.85 507.00,326.14 506.80,321.47 L 506.50 314.50 L 496.60 314.21 C483.21,313.82 470.12,315.39 465.04,317.98 C458.24,321.45 454.58,330.17 456.93,337.30 C458.29,341.40 463.68,346.79 467.59,347.96 C472.46,349.42 484.31,349.11 489.32,347.41 ZM 633.50 385.43 C618.33,383.36 609.77,381.26 598.00,376.72 C590.45,373.81 576.64,366.98 575.87,365.77 C575.32,364.89 577.80,358.57 585.00,342.50 C586.24,339.75 588.09,335.61 589.12,333.30 L 591.00 329.11 L 601.75 334.42 C619.32,343.12 633.41,347.00 647.38,347.00 C656.22,347.00 661.50,345.38 664.56,341.75 C670.45,334.75 665.30,328.50 650.50,324.68 C647.20,323.83 641.12,322.40 637.00,321.50 C629.36,319.84 621.10,317.52 617.50,316.03 C616.40,315.57 613.92,314.62 612.00,313.92 C606.69,311.97 596.96,305.29 592.67,300.64 C586.37,293.82 583.43,286.68 581.51,273.50 C581.19,271.30 581.60,265.97 582.43,261.66 C586.68,239.55 600.98,226.43 628.00,219.87 C635.33,218.09 664.15,218.08 674.00,219.85 C681.33,221.17 701.01,226.57 704.00,228.08 C704.83,228.49 707.64,229.78 710.25,230.92 C712.86,232.07 715.00,233.33 715.00,233.72 C715.00,234.10 713.01,239.16 710.59,244.96 C708.16,250.76 705.14,258.11 703.88,261.30 C702.62,264.48 701.07,267.52 700.44,268.05 C699.38,268.93 696.47,268.01 687.50,263.97 C684.69,262.70 673.45,259.45 667.50,258.19 C658.85,256.34 651.13,255.82 643.42,256.54 C637.18,257.12 635.47,257.69 632.98,260.02 C627.83,264.83 629.47,271.17 636.82,274.89 C638.84,275.92 649.05,278.87 659.50,281.46 C669.95,284.05 682.27,287.64 686.88,289.44 C707.94,297.67 718.00,311.31 718.00,331.66 C718.00,346.81 713.55,357.80 703.47,367.55 C690.82,379.80 676.41,384.71 651.00,385.43 C643.03,385.66 635.15,385.66 633.50,385.43 ZM 783.00 385.40 C778.02,384.83 768.03,382.93 764.50,381.89 C753.33,378.59 744.19,375.08 735.66,370.81 C724.21,365.08 724.50,366.40 731.40,351.77 C733.80,346.67 737.00,339.69 738.52,336.25 C740.03,332.81 741.67,330.00 742.17,330.00 C742.66,330.00 745.63,331.29 748.78,332.88 C757.35,337.19 768.72,341.76 776.53,344.04 C786.13,346.84 807.08,347.81 812.02,345.68 C815.88,344.02 818.70,341.33 819.03,339.00 C820.26,330.16 815.50,327.47 788.00,321.49 C769.66,317.50 754.85,311.21 747.34,304.21 C742.09,299.31 736.40,290.46 734.88,284.84 C732.22,275.03 732.64,262.77 735.94,253.50 C742.90,233.98 761.30,221.84 788.50,218.84 C813.53,216.08 842.30,220.73 862.78,230.85 C867.74,233.30 868.02,233.63 867.41,236.41 C867.05,238.03 866.00,240.75 865.07,242.43 C864.14,244.12 862.32,248.20 861.04,251.50 C857.43,260.73 854.20,267.76 853.31,268.29 C852.86,268.56 850.25,267.72 847.50,266.42 C844.75,265.13 841.80,264.06 840.95,264.04 C840.10,264.02 838.97,263.60 838.45,263.11 C836.87,261.62 821.12,258.02 810.88,256.80 C792.98,254.68 783.00,258.01 783.00,266.09 C783.00,272.50 788.51,275.64 807.46,280.05 C815.23,281.86 819.77,283.03 832.50,286.53 C847.83,290.74 862.17,301.41 867.41,312.50 C869.85,317.65 870.33,320.10 870.77,329.80 C871.31,341.62 870.74,344.99 866.65,354.47 C863.51,361.73 853.39,372.03 845.24,376.25 C839.12,379.43 835.90,380.58 823.50,384.06 C819.52,385.18 789.68,386.17 783.00,385.40 ZM 1217.00 385.10 C1198.49,382.62 1183.23,370.99 1176.88,354.54 C1173.90,346.81 1173.80,346.05 1174.27,335.00 C1174.91,320.04 1177.27,313.90 1185.91,304.65 C1189.87,300.41 1199.23,294.00 1201.46,294.00 C1202.24,294.00 1203.13,293.60 1203.43,293.12 C1203.73,292.64 1204.99,292.00 1206.24,291.70 C1207.48,291.40 1211.20,290.39 1214.50,289.46 C1219.11,288.16 1226.62,287.62 1247.00,287.13 L 1273.50 286.50 L 1273.80 280.79 C1274.38,269.62 1267.67,262.59 1253.94,259.99 C1241.18,257.57 1218.53,260.18 1205.80,265.53 C1196.33,269.52 1195.67,269.56 1194.42,266.31 C1190.39,255.78 1184.00,236.88 1184.00,235.48 C1184.00,234.00 1192.76,229.69 1201.50,226.88 C1203.70,226.17 1205.93,225.23 1206.45,224.80 C1206.97,224.36 1208.34,224.00 1209.50,224.00 C1210.66,224.00 1212.03,223.59 1212.55,223.09 C1213.07,222.60 1217.32,221.38 1222.00,220.40 C1233.78,217.92 1266.01,217.82 1277.50,220.23 C1293.72,223.64 1304.09,228.78 1312.70,237.68 C1318.70,243.88 1323.31,251.71 1325.24,259.00 C1327.59,267.85 1328.00,279.42 1327.76,329.18 L 1327.50 382.50 L 1323.00 383.19 C1320.53,383.57 1309.91,383.62 1299.42,383.29 L 1280.34 382.70 L 1279.17 377.04 C1278.53,373.93 1278.00,370.17 1278.00,368.69 C1278.00,365.32 1277.01,365.30 1273.92,368.59 C1267.57,375.38 1257.11,381.54 1248.57,383.52 C1240.97,385.28 1224.50,386.11 1217.00,385.10 ZM 1250.07 348.85 C1259.31,347.33 1268.39,341.51 1271.70,335.00 C1273.60,331.25 1273.94,329.17 1273.74,322.50 L 1273.50 314.50 L 1263.00 314.21 C1249.94,313.85 1238.29,315.20 1233.38,317.64 C1231.32,318.66 1228.25,321.23 1226.56,323.35 C1224.01,326.55 1223.51,328.06 1223.55,332.35 C1223.63,340.82 1228.68,346.80 1237.51,348.87 C1242.94,350.14 1242.29,350.14 1250.07,348.85 ZM 333.61 382.42 C332.85,380.45 333.05,247.98 333.88,200.00 L 334.50 164.50 L 359.93 164.23 C378.85,164.03 385.55,164.27 386.10,165.16 C387.40,167.27 385.98,382.39 384.66,383.23 C384.02,383.64 372.41,383.98 358.86,383.98 C337.30,384.00 334.14,383.80 333.61,382.42 ZM 937.87 301.25 C937.80,255.74 937.77,217.26 937.80,215.75 L 937.86 213.00 L 904.43 213.00 L 871.00 213.00 L 871.00 191.00 L 871.00 169.00 L 964.52 169.00 L 1058.04 169.00 L 1057.77 190.75 L 1057.50 212.50 L 1025.06 213.00 L 992.62 213.50 L 992.89 297.29 C993.11,361.64 992.89,381.43 991.96,382.54 C990.96,383.75 986.25,384.00 964.38,384.00 L 938.00 384.00 L 937.87 301.25 ZM 1065.22 382.82 C1064.28,381.88 1064.00,362.93 1064.00,300.80 L 1064.00 220.00 L 1088.39 220.00 L 1112.78 220.00 L 1113.35 223.25 C1113.66,225.04 1114.23,230.99 1114.61,236.48 L 1115.31 246.47 L 1117.90 243.07 C1131.29,225.55 1143.51,218.59 1161.00,218.53 L 1170.50 218.50 L 1170.50 243.00 L 1170.50 267.50 L 1159.50 268.11 C1135.62,269.44 1126.13,275.53 1118.40,294.50 C1117.95,295.60 1117.34,316.08 1117.04,340.00 L 1116.50 383.50 L 1091.47 383.77 C1072.84,383.97 1066.12,383.72 1065.22,382.82 ZM 1539.00 274.02 L 1539.00 164.00 L 1565.50 164.00 L 1592.00 164.00 L 1592.00 223.58 C1592.00,264.42 1592.33,283.06 1593.04,282.82 C1593.61,282.63 1598.68,277.46 1604.29,271.34 C1609.91,265.22 1623.03,251.16 1633.45,240.10 L 1652.41 220.00 L 1682.70 220.00 C1702.97,220.00 1713.00,220.34 1713.00,221.04 C1713.00,222.17 1700.78,235.53 1674.15,263.50 C1664.72,273.40 1657.01,282.03 1657.00,282.68 C1657.00,283.84 1666.51,299.57 1674.47,311.57 C1676.69,314.91 1680.97,321.55 1684.00,326.34 C1690.59,336.76 1703.30,356.77 1711.97,370.37 C1715.43,375.81 1718.32,380.98 1718.38,381.87 C1718.49,383.34 1715.51,383.50 1687.61,383.50 C1657.80,383.50 1656.68,383.43 1655.49,381.50 C1654.81,380.40 1652.68,376.58 1650.76,373.00 C1647.36,366.66 1645.89,364.09 1635.04,345.50 C1632.16,340.55 1628.78,334.70 1627.54,332.50 C1622.30,323.21 1619.44,319.00 1618.36,319.00 C1617.73,319.00 1611.55,325.01 1604.63,332.34 L 1592.05 345.69 L 1591.77 364.59 L 1591.50 383.50 L 1565.25 383.77 L 1539.00 384.03 L 1539.00 274.02 ZM 1743.04 382.89 C1736.10,380.77 1730.05,375.22 1726.82,368.00 C1725.18,364.32 1724.89,361.93 1725.21,354.95 C1725.55,347.49 1725.97,345.84 1728.56,341.99 C1730.19,339.56 1733.47,336.21 1735.85,334.54 C1739.73,331.81 1741.06,331.46 1749.04,331.15 C1755.72,330.89 1759.05,331.23 1762.47,332.54 C1767.58,334.49 1773.19,340.13 1775.48,345.60 C1777.24,349.83 1777.47,360.75 1775.92,366.35 C1774.61,371.08 1767.98,378.46 1762.57,381.22 C1757.91,383.60 1748.12,384.43 1743.04,382.89 Z" fill="rgb(161,161,161)"/>
<path d="M 202.50 385.27 C199.77,384.88 192.28,383.13 184.50,381.08 C170.88,377.47 153.74,366.72 141.94,354.37 C125.83,337.51 117.19,320.38 112.08,295.17 C110.82,288.98 110.73,267.42 111.92,258.00 C113.95,241.95 122.83,221.61 134.15,207.05 C149.83,186.91 171.63,173.76 198.50,168.27 C207.88,166.35 230.30,166.18 242.55,167.94 C260.62,170.54 279.80,179.42 292.30,190.97 C298.69,196.87 311.00,212.15 311.00,214.17 C311.00,215.75 275.57,240.98 273.33,240.99 C272.69,241.00 271.24,239.51 270.12,237.70 C266.60,231.99 255.61,222.28 249.14,219.14 C220.23,205.14 187.38,215.72 174.03,243.32 C168.20,255.38 166.69,263.04 167.29,277.50 C168.13,297.63 173.37,311.03 184.93,322.62 C195.72,333.43 205.45,337.31 222.00,337.41 C232.42,337.47 235.45,337.15 241.38,335.35 C248.87,333.08 261.80,322.91 268.69,313.87 C270.74,311.19 272.77,309.00 273.22,309.00 C273.91,309.00 302.86,327.63 309.79,332.54 C311.49,333.74 311.91,334.72 311.41,336.33 C309.36,342.86 293.62,360.31 283.22,367.59 C270.79,376.27 258.06,381.64 243.00,384.55 C235.96,385.91 210.16,386.37 202.50,385.27 ZM 452.50 385.32 C445.83,384.90 440.80,383.43 433.08,379.65 C423.18,374.80 416.66,368.25 411.85,358.32 C408.09,350.54 407.74,349.09 407.24,339.41 C406.68,328.29 407.29,324.87 411.60,315.29 C417.17,302.88 433.01,291.58 447.81,289.44 C449.84,289.14 452.17,288.62 453.00,288.28 C453.83,287.94 466.20,287.39 480.50,287.08 L 506.50 286.50 L 506.48 280.00 C506.44,269.07 501.28,263.56 488.20,260.44 C475.09,257.32 451.77,260.01 435.83,266.49 C432.44,267.87 429.17,269.00 428.58,268.99 C427.98,268.99 426.68,266.40 425.67,263.24 C424.66,260.08 422.04,252.84 419.85,247.15 C417.66,241.46 416.08,236.24 416.34,235.56 C417.17,233.39 430.83,227.45 444.50,223.32 C452.14,221.01 458.20,220.08 473.81,218.80 C495.88,217.00 515.64,219.96 531.00,227.37 C539.47,231.45 549.66,241.47 553.41,249.41 C558.87,260.95 558.83,260.37 559.46,322.61 C559.78,354.57 559.76,381.46 559.42,382.36 C558.86,383.81 556.28,384.00 537.08,384.00 C521.30,384.00 514.92,383.66 513.68,382.75 C512.50,381.89 511.78,379.43 511.35,374.84 C510.41,364.82 509.97,364.62 503.28,371.14 C495.33,378.90 485.41,383.49 473.50,384.92 C464.76,385.96 463.10,385.99 452.50,385.32 ZM 489.32 347.41 C495.50,345.30 503.42,338.09 505.48,332.69 C506.56,329.85 507.00,326.14 506.80,321.47 L 506.50 314.50 L 496.60 314.21 C483.21,313.82 470.12,315.39 465.04,317.98 C458.24,321.45 454.58,330.17 456.93,337.30 C458.29,341.40 463.68,346.79 467.59,347.96 C472.46,349.42 484.31,349.11 489.32,347.41 ZM 633.50 385.43 C618.33,383.36 609.77,381.26 598.00,376.72 C590.45,373.81 576.64,366.98 575.87,365.77 C575.32,364.89 577.80,358.57 585.00,342.50 C586.24,339.75 588.09,335.61 589.12,333.30 L 591.00 329.11 L 601.75 334.42 C619.32,343.12 633.41,347.00 647.38,347.00 C656.22,347.00 661.50,345.38 664.56,341.75 C670.45,334.75 665.30,328.50 650.50,324.68 C647.20,323.83 641.12,322.40 637.00,321.50 C629.36,319.84 621.10,317.52 617.50,316.03 C616.40,315.57 613.92,314.62 612.00,313.92 C606.69,311.97 596.96,305.29 592.67,300.64 C586.37,293.82 583.43,286.68 581.51,273.50 C581.19,271.30 581.60,265.97 582.43,261.66 C586.68,239.55 600.98,226.43 628.00,219.87 C635.33,218.09 664.15,218.08 674.00,219.85 C681.33,221.17 701.01,226.57 704.00,228.08 C704.83,228.49 707.64,229.78 710.25,230.92 C712.86,232.07 715.00,233.33 715.00,233.72 C715.00,234.10 713.01,239.16 710.59,244.96 C708.16,250.76 705.14,258.11 703.88,261.30 C702.62,264.48 701.07,267.52 700.44,268.05 C699.38,268.93 696.47,268.01 687.50,263.97 C684.69,262.70 673.45,259.45 667.50,258.19 C658.85,256.34 651.13,255.82 643.42,256.54 C637.18,257.12 635.47,257.69 632.98,260.02 C627.83,264.83 629.47,271.17 636.82,274.89 C638.84,275.92 649.05,278.87 659.50,281.46 C669.95,284.05 682.27,287.64 686.88,289.44 C707.94,297.67 718.00,311.31 718.00,331.66 C718.00,346.81 713.55,357.80 703.47,367.55 C690.82,379.80 676.41,384.71 651.00,385.43 C643.03,385.66 635.15,385.66 633.50,385.43 ZM 783.00 385.40 C778.02,384.83 768.03,382.93 764.50,381.89 C753.33,378.59 744.19,375.08 735.66,370.81 C724.21,365.08 724.50,366.40 731.40,351.77 C733.80,346.67 737.00,339.69 738.52,336.25 C740.03,332.81 741.67,330.00 742.17,330.00 C742.66,330.00 745.63,331.29 748.78,332.88 C757.35,337.19 768.72,341.76 776.53,344.04 C786.13,346.84 807.08,347.81 812.02,345.68 C815.88,344.02 818.70,341.33 819.03,339.00 C820.26,330.16 815.50,327.47 788.00,321.49 C769.66,317.50 754.85,311.21 747.34,304.21 C742.09,299.31 736.40,290.46 734.88,284.84 C732.22,275.03 732.64,262.77 735.94,253.50 C742.90,233.98 761.30,221.84 788.50,218.84 C813.53,216.08 842.30,220.73 862.78,230.85 C867.74,233.30 868.02,233.63 867.41,236.41 C867.05,238.03 866.00,240.75 865.07,242.43 C864.14,244.12 862.32,248.20 861.04,251.50 C857.43,260.73 854.20,267.76 853.31,268.29 C852.86,268.56 850.25,267.72 847.50,266.42 C844.75,265.13 841.80,264.06 840.95,264.04 C840.10,264.02 838.97,263.60 838.45,263.11 C836.87,261.62 821.12,258.02 810.88,256.80 C792.98,254.68 783.00,258.01 783.00,266.09 C783.00,272.50 788.51,275.64 807.46,280.05 C815.23,281.86 819.77,283.03 832.50,286.53 C847.83,290.74 862.17,301.41 867.41,312.50 C869.85,317.65 870.33,320.10 870.77,329.80 C871.31,341.62 870.74,344.99 866.65,354.47 C863.51,361.73 853.39,372.03 845.24,376.25 C839.12,379.43 835.90,380.58 823.50,384.06 C819.52,385.18 789.68,386.17 783.00,385.40 ZM 1217.00 385.10 C1198.49,382.62 1183.23,370.99 1176.88,354.54 C1173.90,346.81 1173.80,346.05 1174.27,335.00 C1174.91,320.04 1177.27,313.90 1185.91,304.65 C1189.87,300.41 1199.23,294.00 1201.46,294.00 C1202.24,294.00 1203.13,293.60 1203.43,293.12 C1203.73,292.64 1204.99,292.00 1206.24,291.70 C1207.48,291.40 1211.20,290.39 1214.50,289.46 C1219.11,288.16 1226.62,287.62 1247.00,287.13 L 1273.50 286.50 L 1273.80 280.79 C1274.38,269.62 1267.67,262.59 1253.94,259.99 C1241.18,257.57 1218.53,260.18 1205.80,265.53 C1196.33,269.52 1195.67,269.56 1194.42,266.31 C1190.39,255.78 1184.00,236.88 1184.00,235.48 C1184.00,234.00 1192.76,229.69 1201.50,226.88 C1203.70,226.17 1205.93,225.23 1206.45,224.80 C1206.97,224.36 1208.34,224.00 1209.50,224.00 C1210.66,224.00 1212.03,223.59 1212.55,223.09 C1213.07,222.60 1217.32,221.38 1222.00,220.40 C1233.78,217.92 1266.01,217.82 1277.50,220.23 C1293.72,223.64 1304.09,228.78 1312.70,237.68 C1318.70,243.88 1323.31,251.71 1325.24,259.00 C1327.59,267.85 1328.00,279.42 1327.76,329.18 L 1327.50 382.50 L 1323.00 383.19 C1320.53,383.57 1309.91,383.62 1299.42,383.29 L 1280.34 382.70 L 1279.17 377.04 C1278.53,373.93 1278.00,370.17 1278.00,368.69 C1278.00,365.32 1277.01,365.30 1273.92,368.59 C1267.57,375.38 1257.11,381.54 1248.57,383.52 C1240.97,385.28 1224.50,386.11 1217.00,385.10 ZM 1250.07 348.85 C1259.31,347.33 1268.39,341.51 1271.70,335.00 C1273.60,331.25 1273.94,329.17 1273.74,322.50 L 1273.50 314.50 L 1263.00 314.21 C1249.94,313.85 1238.29,315.20 1233.38,317.64 C1231.32,318.66 1228.25,321.23 1226.56,323.35 C1224.01,326.55 1223.51,328.06 1223.55,332.35 C1223.63,340.82 1228.68,346.80 1237.51,348.87 C1242.94,350.14 1242.29,350.14 1250.07,348.85 ZM 1418.43 385.23 C1397.39,382.29 1382.94,375.17 1368.45,360.60 C1360.65,352.76 1358.67,350.04 1354.20,341.00 C1347.20,326.85 1344.71,315.27 1345.33,299.74 C1346.01,282.53 1348.21,274.00 1355.61,259.92 C1362.31,247.17 1379.49,231.68 1392.82,226.38 C1394.84,225.57 1397.40,224.51 1398.50,224.02 C1399.60,223.53 1402.07,222.68 1404.00,222.13 C1405.93,221.58 1409.53,220.54 1412.00,219.82 C1420.19,217.42 1463.95,218.49 1465.58,221.13 C1465.87,221.61 1467.00,222.00 1468.07,222.00 C1469.15,222.00 1470.81,222.39 1471.76,222.88 C1472.72,223.36 1477.55,225.69 1482.50,228.07 C1489.84,231.58 1493.00,233.87 1499.65,240.51 C1507.74,248.60 1514.86,259.80 1513.41,262.15 C1513.04,262.74 1503.92,267.49 1493.14,272.71 L 1473.54 282.20 L 1472.02 279.85 C1468.09,273.77 1461.16,267.56 1455.19,264.79 C1450.29,262.52 1446.89,261.73 1440.03,261.29 C1421.61,260.10 1410.61,265.91 1403.30,280.71 C1399.82,287.75 1399.51,289.10 1399.15,298.72 C1398.56,314.86 1401.64,323.59 1411.15,332.65 C1422.11,343.10 1439.75,345.03 1455.00,337.45 C1460.46,334.73 1467.78,328.42 1471.07,323.58 C1472.41,321.62 1473.98,320.01 1474.56,320.01 C1477.09,319.99 1514.52,339.77 1514.81,341.28 C1515.34,343.99 1505.57,357.32 1498.01,364.22 C1487.24,374.04 1469.44,382.65 1456.08,384.49 C1450.93,385.20 1422.23,385.76 1418.43,385.23 ZM 333.61 382.42 C332.85,380.45 333.05,247.98 333.88,200.00 L 334.50 164.50 L 359.93 164.23 C378.85,164.03 385.55,164.27 386.10,165.16 C387.40,167.27 385.98,382.39 384.66,383.23 C384.02,383.64 372.41,383.98 358.86,383.98 C337.30,384.00 334.14,383.80 333.61,382.42 ZM 937.87 301.25 C937.80,255.74 937.77,217.26 937.80,215.75 L 937.86 213.00 L 904.43 213.00 L 871.00 213.00 L 871.00 191.00 L 871.00 169.00 L 964.52 169.00 L 1058.04 169.00 L 1057.77 190.75 L 1057.50 212.50 L 1025.06 213.00 L 992.62 213.50 L 992.89 297.29 C993.11,361.64 992.89,381.43 991.96,382.54 C990.96,383.75 986.25,384.00 964.38,384.00 L 938.00 384.00 L 937.87 301.25 ZM 1065.22 382.82 C1064.28,381.88 1064.00,362.93 1064.00,300.80 L 1064.00 220.00 L 1088.39 220.00 L 1112.78 220.00 L 1113.35 223.25 C1113.66,225.04 1114.23,230.99 1114.61,236.48 L 1115.31 246.47 L 1117.90 243.07 C1131.29,225.55 1143.51,218.59 1161.00,218.53 L 1170.50 218.50 L 1170.50 243.00 L 1170.50 267.50 L 1159.50 268.11 C1135.62,269.44 1126.13,275.53 1118.40,294.50 C1117.95,295.60 1117.34,316.08 1117.04,340.00 L 1116.50 383.50 L 1091.47 383.77 C1072.84,383.97 1066.12,383.72 1065.22,382.82 ZM 1539.00 274.02 L 1539.00 164.00 L 1565.50 164.00 L 1592.00 164.00 L 1592.00 223.58 C1592.00,264.42 1592.33,283.06 1593.04,282.82 C1593.61,282.63 1598.68,277.46 1604.29,271.34 C1609.91,265.22 1623.03,251.16 1633.45,240.10 L 1652.41 220.00 L 1682.70 220.00 C1702.97,220.00 1713.00,220.34 1713.00,221.04 C1713.00,222.17 1700.78,235.53 1674.15,263.50 C1664.72,273.40 1657.01,282.03 1657.00,282.68 C1657.00,283.84 1666.51,299.57 1674.47,311.57 C1676.69,314.91 1680.97,321.55 1684.00,326.34 C1690.59,336.76 1703.30,356.77 1711.97,370.37 C1715.43,375.81 1718.32,380.98 1718.38,381.87 C1718.49,383.34 1715.51,383.50 1687.61,383.50 C1657.80,383.50 1656.68,383.43 1655.49,381.50 C1654.81,380.40 1652.68,376.58 1650.76,373.00 C1647.36,366.66 1645.89,364.09 1635.04,345.50 C1632.16,340.55 1628.78,334.70 1627.54,332.50 C1622.30,323.21 1619.44,319.00 1618.36,319.00 C1617.73,319.00 1611.55,325.01 1604.63,332.34 L 1592.05 345.69 L 1591.77 364.59 L 1591.50 383.50 L 1565.25 383.77 L 1539.00 384.03 L 1539.00 274.02 ZM 1743.04 382.89 C1736.10,380.77 1730.05,375.22 1726.82,368.00 C1725.18,364.32 1724.89,361.93 1725.21,354.95 C1725.55,347.49 1725.97,345.84 1728.56,341.99 C1730.19,339.56 1733.47,336.21 1735.85,334.54 C1739.73,331.81 1741.06,331.46 1749.04,331.15 C1755.72,330.89 1759.05,331.23 1762.47,332.54 C1767.58,334.49 1773.19,340.13 1775.48,345.60 C1777.24,349.83 1777.47,360.75 1775.92,366.35 C1774.61,371.08 1767.98,378.46 1762.57,381.22 C1757.91,383.60 1748.12,384.43 1743.04,382.89 Z" fill="rgb(254,254,254)"/>
</g>
</svg>